<?xml version="1.0" encoding="UTF-8" standalone="no"?>
<!DOCTYPE svg PUBLIC "-//W3C//DTD SVG 1.1//EN" "http://www.w3.org/Graphics/SVG/1.1/DTD/svg11.dtd">
<svg width="100%" height="100%" viewBox="0 0 512 396" version="1.1" xmlns="http://www.w3.org/2000/svg" xmlns:xlink="http://www.w3.org/1999/xlink" xml:space="preserve" xmlns:serif="http://www.serif.com/" style="fill-rule:evenodd;clip-rule:evenodd;stroke-linejoin:round;stroke-miterlimit:2;">
    <g transform="matrix(2.58586,0,0,2.5913,-2.58588,-2.5913)">
        <path d="M197.239,117.962C193.371,122.842 183.896,126.322 183.896,126.322L113.404,151.642L113.404,132.97L165.281,114.486C171.168,112.376 172.072,109.395 167.287,107.829C162.511,106.26 153.862,106.71 147.971,108.828L113.404,121.002L113.404,101.623L115.397,100.949C115.397,100.949 125.385,97.414 139.431,95.858C153.476,94.311 170.673,96.069 184.174,101.187C199.389,105.995 201.102,113.082 197.239,117.962ZM120.115,86.166L120.115,38.413C120.115,32.805 119.08,27.642 113.818,26.181C109.789,24.89 107.288,28.632 107.288,34.235L107.288,153.819L75.038,143.583L75.038,1C88.75,3.545 108.727,9.563 119.467,13.183C146.779,22.56 156.039,34.231 156.039,60.527C156.039,86.157 140.218,95.871 120.115,86.166ZM15.862,131.018C0.243,126.619 -2.357,117.454 4.763,112.174C11.342,107.299 22.532,103.629 22.532,103.629L68.773,87.187L68.773,105.932L35.497,117.841C29.619,119.95 28.715,122.936 33.492,124.501C38.272,126.066 46.925,125.621 52.812,123.507L68.773,117.715L68.773,134.485C67.761,134.665 66.632,134.845 65.589,135.02C49.623,137.629 32.619,136.54 15.862,131.018Z" style="fill:rgb(18,20,53);"/>
    </g>
</svg>
