<?xml version="1.0" standalone="no"?>
<!DOCTYPE svg PUBLIC "-//W3C//DTD SVG 20010904//EN"
 "http://www.w3.org/TR/2001/REC-SVG-20010904/DTD/svg10.dtd">
<svg version="1.0" xmlns="http://www.w3.org/2000/svg"
 width="700.000000pt" height="700.000000pt" viewBox="0 0 700.000000 700.000000"
 preserveAspectRatio="xMidYMid meet">
<metadata>
Created by potrace 1.14, written by Peter Selinger 2001-2017
</metadata>
<g transform="translate(0.000000,700.000000) scale(0.100000,-0.100000)"
fill="#000000" stroke="none">
<path d="M3230 6820 c-532 -33 -1031 -169 -1485 -404 -119 -62 -154 -75 -235
-90 -700 -126 -1282 -767 -1458 -1606 -38 -177 -47 -280 -47 -510 0 -241 12
-345 62 -549 54 -223 154 -460 270 -636 32 -49 82 -134 111 -187 l52 -97 -20
-83 c-44 -189 -54 -276 -54 -508 -1 -262 18 -402 81 -625 239 -840 955 -1414
1679 -1345 114 10 145 24 164 70 17 41 8 67 -47 141 -171 233 -292 513 -367
851 -5 22 11 10 81 -63 385 -400 927 -652 1603 -746 158 -22 641 -25 800 -5
484 60 889 184 1255 384 402 219 700 482 920 813 169 252 277 547 292 790 6
99 5 100 -22 128 -21 21 -37 27 -70 27 -38 0 -53 -9 -151 -86 -122 -98 -292
-213 -435 -297 -99 -58 -396 -207 -451 -226 -30 -11 -30 -9 12 25 25 20 117
109 205 198 146 147 286 316 360 436 15 25 64 83 109 130 284 297 460 669 533
1125 22 138 25 524 4 660 -80 541 -295 991 -635 1328 -278 276 -602 438 -958
477 -92 10 -105 15 -240 85 -398 205 -831 332 -1291 379 -188 19 -460 26 -627
16z m-1282 -826 c245 -44 484 -186 655 -391 644 -775 470 -2151 -348 -2738
-192 -137 -397 -211 -621 -222 -201 -10 -370 28 -551 121 -118 61 -202 126
-310 240 -483 505 -580 1414 -228 2141 194 402 509 699 863 814 176 58 348 69
540 35z m3482 5 c163 -24 362 -110 514 -223 552 -408 832 -1219 681 -1971 -49
-243 -161 -504 -289 -676 -76 -100 -216 -238 -304 -298 -95 -64 -235 -128
-347 -158 -87 -23 -120 -26 -260 -27 -210 -1 -329 26 -515 119 -457 229 -797
760 -886 1385 -23 154 -22 438 1 585 111 725 557 1225 1135 1274 94 8 159 6
270 -10z"/>
<path d="M1945 5109 c-147 -22 -251 -75 -366 -189 -146 -144 -208 -285 -216
-495 -7 -145 14 -244 76 -370 203 -409 708 -509 1034 -205 94 87 155 184 198
310 30 87 33 105 33 225 1 154 -13 218 -78 350 -100 204 -291 344 -510 374
-86 12 -86 12 -171 0z"/>
<path d="M4895 5110 c-232 -37 -420 -180 -521 -395 -52 -112 -67 -185 -68
-320 0 -96 4 -136 22 -199 112 -391 491 -611 848 -491 214 72 378 246 449 475
26 85 32 279 11 376 -32 146 -128 310 -237 403 -134 114 -344 177 -504 151z"/>
</g>
</svg>
