<?xml version="1.0" encoding="UTF-8" standalone="no"?>
<!DOCTYPE svg PUBLIC "-//W3C//DTD SVG 1.1//EN" "http://www.w3.org/Graphics/SVG/1.1/DTD/svg11.dtd">
<svg width="100%" height="100%" viewBox="0 0 24 24" version="1.1" xmlns="http://www.w3.org/2000/svg" xmlns:xlink="http://www.w3.org/1999/xlink" xml:space="preserve" xmlns:serif="http://www.serif.com/" style="fill-rule:evenodd;clip-rule:evenodd;stroke-linejoin:round;stroke-miterlimit:2;">
    <g transform="matrix(0.157233,0,0,0.157233,-10.3899,-4.43082)">
        <path d="M153.8,168.1L173.4,168.1C191.4,168.1 206,153.5 206,135.5L206,73.5C206,55.5 191.4,40.9 173.4,40.9L153.7,40.9C153.2,40.9 152.9,41.3 152.9,41.7L152.9,167.2C152.9,167.7 153.3,168.1 153.8,168.1ZM178,98C185.1,98 190.9,103.8 190.9,110.9C190.9,118 185.1,123.8 178,123.8C170.9,123.8 165.1,118 165.1,110.9C165.2,103.8 170.9,98 178,98ZM98.6,79.1C98.6,85.7 104,91.1 110.6,91.1C117.2,91.1 122.6,85.7 122.6,79.1C122.6,72.5 117.2,67.1 110.6,67.1C103.9,67.1 98.6,72.4 98.6,79.1ZM139.2,40.9L111.4,40.9C93.4,40.9 78.8,55.5 78.8,73.5L78.8,135.5C78.8,153.5 93.4,168.1 111.4,168.1L139.2,168.1C139.7,168.1 140.1,167.7 140.1,167.2L140.1,41.8C140.1,41.3 139.7,40.9 139.2,40.9ZM129.9,157.9L111.4,157.9C105.4,157.9 99.8,155.6 95.6,151.3C91.4,147.1 89,141.5 89,135.5L89,73.5C89,67.5 91.3,61.9 95.6,57.7C99.8,53.5 105.4,51.1 111.4,51.1L129.9,51.1L129.9,157.9Z" style="fill:rgb(255,87,34);fill-rule:nonzero;"/>
    </g>
</svg>
